<svg width="24" height="24" viewBox="0 0 30 30" fill="none" xmlns="http://www.w3.org/2000/svg">
<path d="M0 15C0 10.3406 0 8.01088 0.761205 6.17317C1.77614 3.72288 3.72288 1.77614 6.17317 0.761205C8.01088 0 10.3406 0 15 0C19.6594 0 21.9891 0 23.8268 0.761205C26.2771 1.77614 28.2239 3.72288 29.2388 6.17317C30 8.01088 30 10.3406 30 15C30 19.6594 30 21.9891 29.2388 23.8268C28.2239 26.2771 26.2771 28.2239 23.8268 29.2388C21.9891 30 19.6594 30 15 30C10.3406 30 8.01088 30 6.17317 29.2388C3.72288 28.2239 1.77614 26.2771 0.761205 23.8268C0 21.9891 0 19.6594 0 15Z" fill="#0F62FE"/>
<path fill-rule="evenodd" clip-rule="evenodd" d="M6.95946 8.95455C7.35128 8.95455 7.66892 9.27507 7.66892 9.67045V17.625C7.66892 20.217 9.7512 22.3182 12.3198 22.3182C14.8884 22.3182 16.9707 20.217 16.9707 17.625V13.8068H18.3896V17.625C18.3896 21.0077 15.6721 23.75 12.3198 23.75C8.96755 23.75 6.25 21.0077 6.25 17.625V9.67045C6.25 9.27507 6.56764 8.95455 6.95946 8.95455Z" fill="white"/>
<path d="M18.1989 21.0234C21.3084 20.7578 23.75 18.1269 23.75 14.9205V11.7386H22.3311V14.9205C22.3311 17.0834 20.8811 18.9046 18.9085 19.4482L18.1989 21.0234Z" fill="white"/>
<path d="M15.9743 19.2879L15.1355 20.4828C13.0543 19.5117 11.6104 17.3862 11.6104 14.9205V6.96591C11.6104 6.57052 11.928 6.25 12.3198 6.25C12.7116 6.25 13.0293 6.57052 13.0293 6.96591V14.9205C13.0293 16.9047 14.2496 18.6014 15.9743 19.2879Z" fill="white"/>
<path fill-rule="evenodd" clip-rule="evenodd" d="M22.3311 10.243C22.3311 9.1234 21.1635 8.39521 20.1711 8.89591C19.0793 9.44676 18.3896 10.5728 18.3896 11.8045V15.2386H16.9707V11.8045C16.9707 10.0305 17.964 8.40864 19.5365 7.61525C21.4723 6.63854 23.75 8.05901 23.75 10.243V12.5341H22.3311V10.243Z" fill="white"/>
<path d="M16.9707 13.8068V13.6402H16.8041V13.8068H16.9707ZM18.3896 13.8068H18.5563V13.6402H18.3896V13.8068ZM18.1989 21.0234L18.047 20.9549C18.0227 21.0088 18.0288 21.0715 18.0629 21.1197C18.0971 21.168 18.1542 21.1945 18.2131 21.1895L18.1989 21.0234ZM23.75 11.7386H23.9167C23.9167 11.6466 23.842 11.572 23.75 11.572V11.7386ZM22.3311 11.7386V11.572C22.239 11.572 22.1644 11.6466 22.1644 11.7386H22.3311ZM18.9085 19.4482L18.8642 19.2876C18.8163 19.3007 18.7769 19.3345 18.7565 19.3798L18.9085 19.4482ZM15.9743 19.2879L16.1107 19.3836C16.14 19.3419 16.1485 19.2891 16.134 19.2402C16.1194 19.1914 16.0833 19.1519 16.0359 19.133L15.9743 19.2879ZM15.1355 20.4828L15.065 20.6338C15.1382 20.668 15.2254 20.6447 15.2719 20.5786L15.1355 20.4828ZM20.1711 8.89591L20.2462 9.04471L20.1711 8.89591ZM18.3896 15.2386V15.4053C18.4817 15.4053 18.5563 15.3307 18.5563 15.2386H18.3896ZM16.9707 15.2386H16.8041C16.8041 15.3307 16.8787 15.4053 16.9707 15.4053V15.2386ZM19.5365 7.61525L19.6116 7.76405L19.5365 7.61525ZM23.75 12.5341V12.7008C23.842 12.7008 23.9167 12.6261 23.9167 12.5341H23.75ZM22.3311 12.5341H22.1644C22.1644 12.6261 22.239 12.7008 22.3311 12.7008V12.5341ZM7.83559 9.67045C7.83559 9.18445 7.44475 8.78788 6.95946 8.78788V9.12121C7.25782 9.12121 7.50225 9.36569 7.50225 9.67045H7.83559ZM7.83559 17.625V9.67045H7.50225V17.625H7.83559ZM12.3198 22.1515C9.84466 22.1515 7.83559 20.1263 7.83559 17.625H7.50225C7.50225 20.3076 9.65773 22.4848 12.3198 22.4848V22.1515ZM16.8041 17.625C16.8041 20.1263 14.795 22.1515 12.3198 22.1515V22.4848C14.9819 22.4848 17.1374 20.3076 17.1374 17.625H16.8041ZM16.8041 13.8068V17.625H17.1374V13.8068H16.8041ZM18.3896 13.6402H16.9707V13.9735H18.3896V13.6402ZM18.5563 17.625V13.8068H18.223V17.625H18.5563ZM12.3198 23.9167C15.7656 23.9167 18.5563 21.0984 18.5563 17.625H18.223C18.223 20.9171 15.5786 23.5833 12.3198 23.5833V23.9167ZM6.08333 17.625C6.08333 21.0984 8.87408 23.9167 12.3198 23.9167V23.5833C9.06102 23.5833 6.41667 20.9171 6.41667 17.625H6.08333ZM6.08333 9.67045V17.625H6.41667V9.67045H6.08333ZM6.95946 8.78788C6.47417 8.78788 6.08333 9.18445 6.08333 9.67045H6.41667C6.41667 9.36569 6.6611 9.12121 6.95946 9.12121V8.78788ZM23.5833 14.9205C23.5833 18.0408 21.2074 20.5992 18.1847 20.8573L18.2131 21.1895C21.4093 20.9165 23.9167 18.2129 23.9167 14.9205H23.5833ZM23.5833 11.7386V14.9205H23.9167V11.7386H23.5833ZM22.3311 11.9053H23.75V11.572H22.3311V11.9053ZM22.4977 14.9205V11.7386H22.1644V14.9205H22.4977ZM18.9527 19.6089C20.9967 19.0456 22.4977 17.1594 22.4977 14.9205H22.1644C22.1644 17.0074 20.7655 18.7636 18.8642 19.2876L18.9527 19.6089ZM18.3509 21.0919L19.0604 19.5167L18.7565 19.3798L18.047 20.9549L18.3509 21.0919ZM15.8378 19.1921L14.9991 20.3871L15.2719 20.5786L16.1107 19.3836L15.8378 19.1921ZM15.2059 20.3318C13.1818 19.3873 11.777 17.3197 11.777 14.9205H11.4437C11.4437 17.4527 12.9267 19.6361 15.065 20.6338L15.2059 20.3318ZM11.777 14.9205V6.96591H11.4437V14.9205H11.777ZM11.777 6.96591C11.777 6.66115 12.0215 6.41667 12.3198 6.41667V6.08333C11.8345 6.08333 11.4437 6.4799 11.4437 6.96591H11.777ZM12.3198 6.41667C12.6182 6.41667 12.8626 6.66115 12.8626 6.96591H13.1959C13.1959 6.4799 12.8051 6.08333 12.3198 6.08333V6.41667ZM12.8626 6.96591V14.9205H13.1959V6.96591H12.8626ZM12.8626 14.9205C12.8626 16.9745 14.126 18.7316 15.9126 19.4427L16.0359 19.133C14.3732 18.4712 13.1959 16.8349 13.1959 14.9205H12.8626ZM20.2462 9.04471C21.1255 8.60106 22.1644 9.24506 22.1644 10.243H22.4977C22.4977 9.00173 21.2015 8.18936 20.096 8.74711L20.2462 9.04471ZM18.5563 11.8045C18.5563 10.6351 19.2111 9.56696 20.2462 9.04471L20.096 8.74711C18.9475 9.32656 18.223 10.5105 18.223 11.8045H18.5563ZM18.5563 15.2386V11.8045H18.223V15.2386H18.5563ZM16.9707 15.4053H18.3896V15.072H16.9707V15.4053ZM16.8041 11.8045V15.2386H17.1374V11.8045H16.8041ZM19.4614 7.46645C17.8323 8.28844 16.8041 9.96813 16.8041 11.8045H17.1374C17.1374 10.0928 18.0958 8.52885 19.6116 7.76405L19.4614 7.46645ZM23.9167 10.243C23.9167 7.93734 21.5103 6.43269 19.4614 7.46645L19.6116 7.76405C21.4343 6.84439 23.5833 8.18068 23.5833 10.243H23.9167ZM23.9167 12.5341V10.243H23.5833V12.5341H23.9167ZM22.3311 12.7008H23.75V12.3674H22.3311V12.7008ZM22.1644 10.243V12.5341H22.4977V10.243H22.1644Z" fill="white"/>
</svg>
